<svg id="erTX9xA83HL1" xmlns="http://www.w3.org/2000/svg" xmlns:xlink="http://www.w3.org/1999/xlink" viewBox="0 0 264 280" shape-rendering="geometricPrecision" text-rendering="geometricPrecision" style="background-color:transparent"><g display="none"><g transform="translate(-825-1100)"><g transform="translate(825 1100)"><g transform="translate(12 40)"><g><circle r="120" transform="translate(120 120)" clip-rule="evenodd" fill="#e6e6e6" fill-rule="evenodd"/></g><g mask="url(#erTX9xA83HL11)"><g><rect width="240" height="240" rx="0" ry="0" clip-rule="evenodd" fill="#2c3e50" fill-rule="evenodd"/></g><mask id="erTX9xA83HL11" mask-type="luminance" x="-150%" y="-150%" height="400%" width="400%"><g><circle r="120" transform="translate(120 120)" clip-rule="evenodd" fill="#fff" fill-rule="evenodd"/></g></mask></g></g><g mask="url(#erTX9xA83HL89)"><g><g><g transform="translate(32 36)"><g><path d="M124,144.6v18.4h4v0c39.8,0,72,32.2,72,72v9h-200v-9c0-39.8,32.2-72,72-72v0h4v-18.4c-17.2-8.2-29.6-24.9-31.7-44.7C38.5,99.1,34,94.1,34,88v-14c0-5.9,4.3-10.9,10-11.8v-6.2v0C44,25.1,69.1,0,100,0v0v0c30.9,0,56,25.1,56,56v6.2c5.7,1,10,5.9,10,11.8v14c0,6.1-4.5,11.1-10.3,11.9-2.1,19.8-14.5,36.5-31.7,44.7Z" clip-rule="evenodd" fill="#d0c6ac" fill-rule="evenodd"/></g><g mask="url(#erTX9xA83HL24)"><g><g transform="translate(-32 0)"><rect width="264" height="244" rx="0" ry="0" clip-rule="evenodd" fill="#edb98a" fill-rule="evenodd"/></g></g><mask id="erTX9xA83HL24" mask-type="luminance" x="-150%" y="-150%" height="400%" width="400%"><g><path d="M124,144.6v18.4h4v0c39.8,0,72,32.2,72,72v9h-200v-9c0-39.8,32.2-72,72-72v0h4v-18.4c-17.2-8.2-29.6-24.9-31.7-44.7C38.5,99.1,34,94.1,34,88v-14c0-5.9,4.3-10.9,10-11.8v-6.2v0C44,25.1,69.1,0,100,0v0v0c30.9,0,56,25.1,56,56v6.2c5.7,1,10,5.9,10,11.8v14c0,6.1-4.5,11.1-10.3,11.9-2.1,19.8-14.5,36.5-31.7,44.7Z" clip-rule="evenodd" fill="#fff" fill-rule="evenodd"/></g></mask></g><g clip-rule="evenodd" mask="url(#erTX9xA83HL29)"><path d="M156,79v23c0,30.9-25.1,56-56,56s-56-25.1-56-56v-23v15c0,30.9,25.1,56,56,56s56-25.1,56-56v-15Z" fill-opacity="0.1" fill-rule="evenodd"/><mask id="erTX9xA83HL29" mask-type="luminance" x="-150%" y="-150%" height="400%" width="400%"><g><path d="M124,144.6v18.4h4v0c39.8,0,72,32.2,72,72v9h-200v-9c0-39.8,32.2-72,72-72v0h4v-18.4c-17.2-8.2-29.6-24.9-31.7-44.7C38.5,99.1,34,94.1,34,88v-14c0-5.9,4.3-10.9,10-11.8v-6.2v0C44,25.1,69.1,0,100,0v0v0c30.9,0,56,25.1,56,56v6.2c5.7,1,10,5.9,10,11.8v14c0,6.1-4.5,11.1-10.3,11.9-2.1,19.8-14.5,36.5-31.7,44.7Z" clip-rule="evenodd" fill="#fff" fill-rule="evenodd"/></g></mask></g></g></g><g transform="translate(0 170)"><g><path d="M166,29.3c37,3,66,34,66,71.8v8.9h-200v-8.9C32,63,61.6,31.8,99,29.2c0,.4,0,.7,0,1.1c0,11.9,15,21.5,33.5,21.5s33.5-9.6,33.5-21.5c0-.3,0-.7,0-1Z" clip-rule="evenodd" fill="#e6e6e6" fill-rule="evenodd"/></g><g mask="url(#erTX9xA83HL38)"><g><rect width="264" height="110" rx="0" ry="0" clip-rule="evenodd" fill="#fff" fill-rule="evenodd"/></g><mask id="erTX9xA83HL38" mask-type="luminance" x="-150%" y="-150%" height="400%" width="400%"><g><path d="M166,29.3c37,3,66,34,66,71.8v8.9h-200v-8.9C32,63,61.6,31.8,99,29.2c0,.4,0,.7,0,1.1c0,11.9,15,21.5,33.5,21.5s33.5-9.6,33.5-21.5c0-.3,0-.7,0-1Z" clip-rule="evenodd" fill="#fff" fill-rule="evenodd"/></g></mask></g><g mask="url(#erTX9xA83HL45)"><g opacity="0.6"><g transform="translate(92 4)"><ellipse rx="39.6" ry="26.9" transform="translate(40.5 27.8)" clip-rule="evenodd" fill-opacity="0.16" fill-rule="evenodd"/></g></g><mask id="erTX9xA83HL45" mask-type="luminance" x="-150%" y="-150%" height="400%" width="400%"><g><path d="M166,29.3c37,3,66,34,66,71.8v8.9h-200v-8.9C32,63,61.6,31.8,99,29.2c0,.4,0,.7,0,1.1c0,11.9,15,21.5,33.5,21.5s33.5-9.6,33.5-21.5c0-.3,0-.7,0-1Z" clip-rule="evenodd" fill="#fff" fill-rule="evenodd"/></g></mask></g></g><g transform="translate(76 82)"><g transform="translate(2 52)"><g><path d="M35.1,15.1C36.2,24.6,44.2,32,54,32s17.9-7.4,18.9-17c.1-.8-.8-2-1.8-2-14.9,0-26.3,0-34,0-1.1,0-2.1,1.2-2,2.1Z" clip-rule="evenodd" fill-opacity="0.7" fill-rule="evenodd"/></g><g clip-rule="evenodd" mask="url(#erTX9xA83HL54)"><path d="M44,2h21c2.8,0,5,2.2,5,5v6c0,2.8-2.2,5-5,5h-21c-2.8,0-5-2.2-5-5v-6c0-2.8,2.2-5,5-5Z" fill="#fff" fill-rule="evenodd"/><mask id="erTX9xA83HL54" mask-type="luminance" x="-150%" y="-150%" height="400%" width="400%"><g><path d="M35.1,15.1C36.2,24.6,44.2,32,54,32s17.9-7.4,18.9-17c.1-.8-.8-2-1.8-2-14.9,0-26.3,0-34,0-1.1,0-2.1,1.2-2,2.1Z" clip-rule="evenodd" fill="#fff" fill-rule="evenodd"/></g></mask></g><g mask="url(#erTX9xA83HL62)"><g><g transform="translate(38 24)"><circle r="11" transform="translate(11 11)" clip-rule="evenodd" fill="#ff4f6d" fill-rule="evenodd"/><circle r="11" transform="translate(21 11)" clip-rule="evenodd" fill="#ff4f6d" fill-rule="evenodd"/></g></g><mask id="erTX9xA83HL62" mask-type="luminance" x="-150%" y="-150%" height="400%" width="400%"><g><path d="M35.1,15.1C36.2,24.6,44.2,32,54,32s17.9-7.4,18.9-17c.1-.8-.8-2-1.8-2-14.9,0-26.3,0-34,0-1.1,0-2.1,1.2-2,2.1Z" clip-rule="evenodd" fill="#fff" fill-rule="evenodd"/></g></mask></g></g><g transform="translate(28 40)"><path d="M16,8c0,4.4,5.4,8,12,8v0c6.6,0,12-3.6,12-8" clip-rule="evenodd" fill-opacity="0.16" fill-rule="evenodd"/></g><g transform="translate(0 8)"><path d="M16.2,22.4C18,18.6,22.2,16,27,16s9,2.6,10.8,6.4c.6,1.1-.2,2-1,1.4-2.5-2.1-5.9-3.4-9.8-3.4-3.7,0-7.1,1.2-9.6,3.2-.9.7-1.8,0-1.2-1.2Z" clip-rule="evenodd" fill-opacity="0.6" fill-rule="evenodd"/><path d="M74.2,22.4C76,18.6,80.2,16,85,16s9,2.6,10.8,6.4c.6,1.1-.2,2-1,1.4-2.5-2.1-5.9-3.4-9.8-3.4-3.7,0-7.1,1.2-9.6,3.2-.9.7-1.8,0-1.2-1.2Z" clip-rule="evenodd" fill-opacity="0.6" fill-rule="evenodd"/></g><g><path d="M26.5,6.1c-5.8.3-15.2,4.5-15,10.3c0,.2.3.3.4.1c2.8-3,22.3-5.9,29.2-4.4.6.1,1.1-.5.7-.9-3.3-3.7-10.1-5.3-15.3-5.1" clip-rule="evenodd" fill-opacity="0.6" fill-rule="evenodd"/><path d="M86.5,6.1c5.8.3,15.2,4.5,15,10.3c0,.2-.3.3-.4.1-2.8-3-22.3-5.9-29.2-4.4-.6.1-1.1-.5-.7-.9c3.3-3.7,10.1-5.3,15.3-5.1" clip-rule="evenodd" fill-opacity="0.6" fill-rule="evenodd"/></g></g><g><g mask="url(#erTX9xA83HL86)"><g><g transform="translate(-1 0)"><g><path d="M183.7,38.9c5.4-5,6.7-15,3.6-21.5-3.8-8-11.4-9-18.7-5.5-6.9,3.3-13.1,4.4-20.6,2.8-7.3-1.5-14.1-4.3-21.6-4.7C114,9.3,102,13.9,93.6,23.1c-1.6,1.8-2.9,3.8-4.1,5.8-1,1.6-2.1,3.4-2.5,5.3-.2.9.2,3.1-.3,3.8-.5.8-2.3,1.5-3.1,2.1-1.6,1.2-2.9,2.5-4.2,4-2.7,3.2-4.1,6.6-5.4,10.6-4.1,13.2-4.5,29,.9,42c.7,1.7,2.9,5.4,4.2,1.6.3-.7-.3-3.2-.3-3.9c0-2.7,1.5-20.7,8-30.8c2.1-3.3,12-15.6,14-15.7c1.1,1.7,11.9,12.5,39.9,11.2c12.7-.6,22.4-6.3,24.7-8.7c1,5.5,13,13.8,14.8,17.2c5.3,9.8,6.4,30.3,8.4,30.3s3.5-5.2,3.9-6.2c3.1-7.4,3.6-16.6,3.3-24.6-.3-10.1-4.5-21.2-12.1-28.2Z" clip-rule="evenodd" fill="#28354b" fill-rule="evenodd"/></g><g mask="url(#erTX9xA83HL83)"><g><g><rect width="264" height="280" rx="0" ry="0" clip-rule="evenodd" fill="#4a312c" fill-rule="evenodd"/></g></g><mask id="erTX9xA83HL83" mask-type="luminance" x="-150%" y="-150%" height="400%" width="400%"><g><path d="M183.7,38.9c5.4-5,6.7-15,3.6-21.5-3.8-8-11.4-9-18.7-5.5-6.9,3.3-13.1,4.4-20.6,2.8-7.3-1.5-14.1-4.3-21.6-4.7C114,9.3,102,13.9,93.6,23.1c-1.6,1.8-2.9,3.8-4.1,5.8-1,1.6-2.1,3.4-2.5,5.3-.2.9.2,3.1-.3,3.8-.5.8-2.3,1.5-3.1,2.1-1.6,1.2-2.9,2.5-4.2,4-2.7,3.2-4.1,6.6-5.4,10.6-4.1,13.2-4.5,29,.9,42c.7,1.7,2.9,5.4,4.2,1.6.3-.7-.3-3.2-.3-3.9c0-2.7,1.5-20.7,8-30.8c2.1-3.3,12-15.6,14-15.7c1.1,1.7,11.9,12.5,39.9,11.2c12.7-.6,22.4-6.3,24.7-8.7c1,5.5,13,13.8,14.8,17.2c5.3,9.8,6.4,30.3,8.4,30.3s3.5-5.2,3.9-6.2c3.1-7.4,3.6-16.6,3.3-24.6-.3-10.1-4.5-21.2-12.1-28.2Z" clip-rule="evenodd" fill="#fff" fill-rule="evenodd"/></g></mask></g></g></g><mask id="erTX9xA83HL86" mask-type="luminance" x="-150%" y="-150%" height="400%" width="400%"><g><rect width="264" height="280" rx="0" ry="0" clip-rule="evenodd" fill="#fff" fill-rule="evenodd"/></g></mask></g></g></g><mask id="erTX9xA83HL89" mask-type="luminance" x="-150%" y="-150%" height="400%" width="400%"><g><path d="M12,160c0,66.3,53.7,120,120,120s120-53.7,120-120h12v-160L0,0v160h12Z" clip-rule="evenodd" fill="#fff" fill-rule="evenodd"/></g></mask></g></g></g></g><ellipse rx="116" ry="123.169735" transform="translate(132 130)" fill="#ca5454" stroke-width="0"/><g transform="translate(.000001 0)"><g transform="matrix(-1 0 0 1 263.999998 0.000013)"><path d="M93.399997,60.690312L87.9,98.608976L87.9,134L108,174.9h24.5L132,194c-13.300233,0-34.933079,0-44.1,0-7.64425,0-24.014135-1.712723-36.792451-13.4-5.546496-4.179884-19.015686-23.795636-14.95042-31.6l22.959576-19v-41.916568c3.717551-18.202479,4.42429-40.73727,12.814645-46.969778c27.068647-22.574231,44.068647-25.179903,44.068647-25.179903c14.46676-1.66032,19.27122,4.654803,21,19.506935l-43.6,25.249626Z" transform="translate(.000003 0)" fill="#301d1d" stroke-width="0.56"/><g transform="translate(.000001 0)"><path d="M128.46999,34.68271c-4.40447-5.50559-8.46989-11.574649-16.36416-11.574649" fill="none" stroke="#1c1414" stroke-width="0.56"/><path d="M120.08835,35.88009c-6.83133-4.0988-7.28835-7.982519-21.15367-7.98252" fill="none" stroke="#1c1414" stroke-width="0.56"/><path d="M112.10583,38.67397c-6.29249-3.77549-11.973775-6.785141-23.94755-4.78951" transform="translate(0 0.000001)" fill="none" stroke="#1c1414" stroke-width="0.56"/><path d="M102.499999,41.113653c-7.63137-3.05255-25.58626-4.789508-26.2,8.336716" transform="translate(.000001 0.000001)" fill="none" stroke="#1c1414" stroke-width="0.56"/><path d="M93.4,44.198508c-9.00687,0-18.01374,10.04137-18.01374,24.809032" fill="none" stroke="#1c1414" stroke-width="0.56"/></g></g><g transform="translate(0 0.000013)"><path d="M93.399997,60.690312L87.9,98.608976L87.9,134L108,174.9h24.5L132,194c-13.300233,0-34.933079,0-44.1,0-7.64425,0-24.014135-1.712723-36.792451-13.4-5.546496-4.179884-19.015686-23.795636-14.95042-31.6l22.959576-19v-41.916568c3.717551-18.202479,4.42429-40.73727,12.814645-46.969778c27.068647-22.574231,44.068647-25.179903,44.068647-25.179903c14.46676-1.66032,19.27122,4.654803,21,19.506935l-43.6,25.249626Z" transform="translate(.000003 0)" fill="#301d1d" stroke-width="0.56"/><g transform="translate(.000001 0)"><path d="M128.46999,34.68271c-4.40447-5.50559-8.46989-11.574649-16.36416-11.574649" fill="none" stroke="#1c1414" stroke-width="0.56"/><path d="M120.08835,35.88009c-6.83133-4.0988-7.28835-7.982519-21.15367-7.98252" fill="none" stroke="#1c1414" stroke-width="0.56"/><path d="M112.10583,38.67397c-6.29249-3.77549-11.973775-6.785141-23.94755-4.78951" transform="translate(0 0.000001)" fill="none" stroke="#1c1414" stroke-width="0.56"/><path d="M102.499999,41.113653c-7.63137-3.05255-25.58626-4.789508-26.2,8.336716" transform="translate(.000001 0.000001)" fill="none" stroke="#1c1414" stroke-width="0.56"/><path d="M93.4,44.198508c-9.00687,0-18.01374,10.04137-18.01374,24.809032" fill="none" stroke="#1c1414" stroke-width="0.56"/></g></g></g><g><g transform="translate(32 36)"><g><path d="M124,144.6v18.4h4v0c39.8,0,72,32.2,72,72v9h-200v-9c0-39.8,32.2-72,72-72v0h4v-18.4c-17.2-8.2-29.6-24.9-31.7-44.7C38.5,99.1,34,94.1,34,88v-14c0-5.9,4.3-10.9,10-11.8v-6.2v0C44,25.1,69.1,0,100,0v0v0c30.9,0,56,25.1,56,56v6.2c5.7,1,10,5.9,10,11.8v14c0,6.1-4.5,11.1-10.3,11.9-2.1,19.8-14.5,36.5-31.7,44.7Z" clip-rule="evenodd" fill="#d0c6ac" fill-rule="evenodd"/></g><g mask="url(#erTX9xA83HL120)"><g><g transform="translate(-32 0)"><rect width="264" height="244" rx="0" ry="0" clip-rule="evenodd" fill="#edb98a" fill-rule="evenodd"/></g></g><mask id="erTX9xA83HL120" mask-type="luminance" x="-150%" y="-150%" height="400%" width="400%"><g><path d="M124,144.6v18.4h4v0c39.8,0,72,32.2,72,72v9h-200v-9c0-39.8,32.2-72,72-72v0h4v-18.4c-17.2-8.2-29.6-24.9-31.7-44.7C38.5,99.1,34,94.1,34,88v-14c0-5.9,4.3-10.9,10-11.8v-6.2v0C44,25.1,69.1,0,100,0v0v0c30.9,0,56,25.1,56,56v6.2c5.7,1,10,5.9,10,11.8v14c0,6.1-4.5,11.1-10.3,11.9-2.1,19.8-14.5,36.5-31.7,44.7Z" clip-rule="evenodd" fill="#fff" fill-rule="evenodd"/></g></mask></g><g clip-rule="evenodd" mask="url(#erTX9xA83HL125)"><path d="M156,79v23c0,30.9-25.1,56-56,56s-56-25.1-56-56v-23v15c0,30.9,25.1,56,56,56s56-25.1,56-56v-15Z" fill-opacity="0.1" fill-rule="evenodd"/><mask id="erTX9xA83HL125" mask-type="luminance" x="-150%" y="-150%" height="400%" width="400%"><g><path d="M124,144.6v18.4h4v0c39.8,0,72,32.2,72,72v9h-200v-9c0-39.8,32.2-72,72-72v0h4v-18.4c-17.2-8.2-29.6-24.9-31.7-44.7C38.5,99.1,34,94.1,34,88v-14c0-5.9,4.3-10.9,10-11.8v-6.2v0C44,25.1,69.1,0,100,0v0v0c30.9,0,56,25.1,56,56v6.2c5.7,1,10,5.9,10,11.8v14c0,6.1-4.5,11.1-10.3,11.9-2.1,19.8-14.5,36.5-31.7,44.7Z" clip-rule="evenodd" fill="#fff" fill-rule="evenodd"/></g></mask></g></g><g transform="translate(0 170)"><g><path d="M166,29.3c37,3,66,34,66,71.8v8.9h-200v-8.9C32,63,61.6,31.8,99,29.2c0,.4,0,.7,0,1.1c0,11.9,15,21.5,33.5,21.5s33.5-9.6,33.5-21.5c0-.3,0-.7,0-1Z" clip-rule="evenodd" fill="#e6e6e6" fill-rule="evenodd"/></g><g mask="url(#erTX9xA83HL134)"><g><rect width="264" height="110" rx="0" ry="0" clip-rule="evenodd" fill="#fff" fill-rule="evenodd"/></g><mask id="erTX9xA83HL134" mask-type="luminance" x="-150%" y="-150%" height="400%" width="400%"><g><path d="M166,29.3c37,3,66,34,66,71.8v8.9h-200v-8.9C32,63,61.6,31.8,99,29.2c0,.4,0,.7,0,1.1c0,11.9,15,21.5,33.5,21.5s33.5-9.6,33.5-21.5c0-.3,0-.7,0-1Z" clip-rule="evenodd" fill="#fff" fill-rule="evenodd"/></g></mask></g><g mask="url(#erTX9xA83HL141)"><g opacity="0.6"><g transform="translate(92 4)"><ellipse rx="39.6" ry="26.9" transform="translate(40.5 27.8)" clip-rule="evenodd" fill-opacity="0.16" fill-rule="evenodd"/></g></g><mask id="erTX9xA83HL141" mask-type="luminance" x="-150%" y="-150%" height="400%" width="400%"><g><path d="M166,29.3c37,3,66,34,66,71.8v8.9h-200v-8.9C32,63,61.6,31.8,99,29.2c0,.4,0,.7,0,1.1c0,11.9,15,21.5,33.5,21.5s33.5-9.6,33.5-21.5c0-.3,0-.7,0-1Z" clip-rule="evenodd" fill="#fff" fill-rule="evenodd"/></g></mask></g></g><g transform="translate(76 82)"><g transform="translate(2 52)"><g><path d="M35.1,15.1C36.2,24.6,44.2,32,54,32s17.9-7.4,18.9-17c.1-.8-.8-2-1.8-2-14.9,0-26.3,0-34,0-1.1,0-2.1,1.2-2,2.1Z" clip-rule="evenodd" fill-opacity="0.7" fill-rule="evenodd"/></g><g clip-rule="evenodd" mask="url(#erTX9xA83HL150)"><path d="M44,2h21c2.8,0,5,2.2,5,5v6c0,2.8-2.2,5-5,5h-21c-2.8,0-5-2.2-5-5v-6c0-2.8,2.2-5,5-5Z" fill="#fff" fill-rule="evenodd"/><mask id="erTX9xA83HL150" mask-type="luminance" x="-150%" y="-150%" height="400%" width="400%"><g><path d="M35.1,15.1C36.2,24.6,44.2,32,54,32s17.9-7.4,18.9-17c.1-.8-.8-2-1.8-2-14.9,0-26.3,0-34,0-1.1,0-2.1,1.2-2,2.1Z" clip-rule="evenodd" fill="#fff" fill-rule="evenodd"/></g></mask></g><g mask="url(#erTX9xA83HL158)"><g><g transform="translate(38 24)"><circle r="11" transform="translate(11 11)" clip-rule="evenodd" fill="#ff4f6d" fill-rule="evenodd"/><circle r="11" transform="translate(21 11)" clip-rule="evenodd" fill="#ff4f6d" fill-rule="evenodd"/></g></g><mask id="erTX9xA83HL158" mask-type="luminance" x="-150%" y="-150%" height="400%" width="400%"><g><path d="M35.1,15.1C36.2,24.6,44.2,32,54,32s17.9-7.4,18.9-17c.1-.8-.8-2-1.8-2-14.9,0-26.3,0-34,0-1.1,0-2.1,1.2-2,2.1Z" clip-rule="evenodd" fill="#fff" fill-rule="evenodd"/></g></mask></g></g><g transform="translate(28 40)"><path d="M16,8c0,4.4,5.4,8,12,8v0c6.6,0,12-3.6,12-8" clip-rule="evenodd" fill-opacity="0.16" fill-rule="evenodd"/></g><g transform="translate(0 8)"><path d="M16.2,22.4C18,18.6,22.2,16,27,16s9,2.6,10.8,6.4c.6,1.1-.2,2-1,1.4-2.5-2.1-5.9-3.4-9.8-3.4-3.7,0-7.1,1.2-9.6,3.2-.9.7-1.8,0-1.2-1.2Z" clip-rule="evenodd" fill-opacity="0.6" fill-rule="evenodd"/><path d="M74.2,22.4C76,18.6,80.2,16,85,16s9,2.6,10.8,6.4c.6,1.1-.2,2-1,1.4-2.5-2.1-5.9-3.4-9.8-3.4-3.7,0-7.1,1.2-9.6,3.2-.9.7-1.8,0-1.2-1.2Z" clip-rule="evenodd" fill-opacity="0.6" fill-rule="evenodd"/></g><g><path d="M26.5,6.1c-5.8.3-15.2,4.5-15,10.3c0,.2.3.3.4.1c2.8-3,22.3-5.9,29.2-4.4.6.1,1.1-.5.7-.9-3.3-3.7-10.1-5.3-15.3-5.1" clip-rule="evenodd" fill-opacity="0.6" fill-rule="evenodd"/><path d="M86.5,6.1c5.8.3,15.2,4.5,15,10.3c0,.2-.3.3-.4.1-2.8-3-22.3-5.9-29.2-4.4-.6.1-1.1-.5-.7-.9c3.3-3.7,10.1-5.3,15.3-5.1" clip-rule="evenodd" fill-opacity="0.6" fill-rule="evenodd"/></g></g></g><g transform="translate(0 0.000001)"><path d="M108.975373,143.999998l5.350266-3L132,140l-2.654936,5.525798-15.019425.709071L112.105831,149l-2.594315,4.64789-4.919496.064461l4.383353-9.712353Z" transform="matrix(-1 0 0 1 265.70399-.143798)" fill="#1c1414" stroke-width="0.56" stroke-dashoffset="1"/><path d="M108.975373,143.999998l5.350266-3L132,140l-2.654936,5.525798-15.019425.709071L112.105831,149l-2.594315,4.64789-4.919496.064461l4.383353-9.712353Z" transform="translate(-1.70399-.143798)" fill="#1c1414" stroke-width="0.56" stroke-dashoffset="1"/><path d="M104.74284,179.092855c4.01251,3.597989,17.671356,7.031058,27.257156,6.907145c8.563323.602294,22.236641-2.757213,27.21425-6.907145l-2.485629-4.192842-24.728621-4.900014-24.728613,4.900012-2.528543,4.192844Z" transform="translate(0 0.000004)" fill="#1c1414" stroke-width="0.56"/></g><g transform="translate(0 0.000001)"><path d="M80.544769,69.148836l52.680666-19.810481v-14.736342c-5.300619.165238-13.703998,1.029547-26.432607,5.66191-5.36343,2.361807-14.325376,9.6472-18.60197,15.301576-5.559912,6.955612-5.85969,10.090517-7.646089,13.583337Z" transform="matrix(1 0 0 0.999999 0.478555-1.317224)" fill="#301d1d" stroke-width="0.56"/><path d="M80.544769,69.148836l52.680666-19.810481v-14.736342c-5.300619.165238-13.703998,1.029547-26.432607,5.66191-5.36343,2.361807-14.325376,9.6472-18.60197,15.301576-5.559912,6.955612-5.85969,10.090517-7.646089,13.583337Z" transform="matrix(-1 0 0 0.999999 263.478531-1.317224)" fill="#301d1d" stroke-width="0.56"/></g></svg>
