<svg id="eaHnDr5c7C41" xmlns="http://www.w3.org/2000/svg" xmlns:xlink="http://www.w3.org/1999/xlink" viewBox="0 0 900 650" shape-rendering="geometricPrecision" text-rendering="geometricPrecision"><rect width="900.476834" height="650.040718" rx="0" ry="0" transform="translate(-.016624 0.004556)" fill="#469549" stroke-width="0"/><ellipse rx="253.162419" ry="263.937706" transform="matrix(1.027659 0 0 1 450.05227 325)" fill="#9aed8f" stroke-width="0"/><rect width="380.781979" height="190.39099" rx="0" ry="0" transform="matrix(.566314 0.592619-.971109 0.928003 574.929052 249.250135)" fill="rgba(5,5,5,0.63)" stroke-width="0"/><path d="M703.664138,383.921911c-19.819757,75.240892-61.314659,149.47066-170.932606,191.327249l70.283928,84.09438q146.828589-46.860621,147.200401-46.860621t60.562744-133.594287L703.664138,383.921911Z" transform="translate(0 0.000001)" fill="#469549" stroke-width="1.8"/><g><path d="M344.834661,138.929369c230.815132-28.6769,316.89393,228.341968,230.815132,356.158448-182.711925,35.027535-312.202347-208.2575-230.815132-356.158448Z" fill="#4a1f1f" stroke-width="1.8"/><path d="M319.781098,247.908357l144.827963-96.42529c4.446434,1.450442,14.491142,7.297697,20.798437,11.155052L320.006165,267.579295c-.326532-5.484207-.420263-13.92358-.225067-19.670938Z" transform="matrix(-1 0 0-1 928.068909 632.748532)" fill="#c8c8c8" stroke-width="1.8"/><path d="M320.006165,247.14049l145.72679-95.559513c4.446434,1.450442,14.425066,6.157582,20.961489,9.687351L321.444643,267.496076c-.88019-4.457636-1.442937-14.635429-1.438478-20.355586Z" transform="translate(0 1.000002)" fill="#fff" stroke-width="1.8"/></g><g transform="translate(.000001 0)"><path d="M324.191198,197.136484c-6.268331,70.766595,12.985134,141.391312,37.905476,181.876547c15.472641,31.566045,81.816473,129.846392,156.95247,146.934745" transform="translate(8.574786-28.839411)" fill="none" stroke="#000" stroke-width="1.8" stroke-dasharray="4"/><path d="M320.905197,221.560085c-6.268331,70.766595,16.271135,116.967711,41.191477,157.452946c15.472641,31.566045,81.842781,130.572049,156.978778,147.660402" transform="matrix(-1 0 0-1 919.295875 665.627762)" fill="none" stroke="#000" stroke-width="1.8" stroke-dasharray="4"/></g><g transform="matrix(.995588-.093831 0.093831 0.995588-25.205673 54.222469)"><g transform="matrix(.992747-.120222 0.120222 0.992747-41.382586 60.650432)"><path d="M499.443887,196.026574l9.82943-11.241832l9.483087,6.761985-8.483673,9.789031l10.001714,8.25548l8.325312-8.017804l7.302194,6.805555-5.50625,6.594334l7.097286,7.254185l7.938763-6.459245l6.231066,7.726084-6.647206,5.53096l6.184507,6.403493l6.22185-5.074559l4.911497,5.730521-5.84611,5.337709l6.868244,8.472637-3.321804,2.336165q-61.177411-56.386656-60.589907-56.204699Z" transform="matrix(.41334-.910577-.910577-.41334 553.724514 881.3402)" fill="#fff" stroke-width="1.8"/><path d="M499.443887,196.026574l9.82943-11.241832l9.483087,6.761985-8.483673,9.789031l10.001714,8.25548l8.325312-8.017804l7.302194,6.805555-5.50625,6.594334l7.097286,7.254185l7.938763-6.459245l6.231066,7.726084-6.647206,5.53096l6.184507,6.403493l6.22185-5.074559l4.911497,5.730521-5.84611,5.337709l6.868244,8.472637-3.321804,2.336165q-61.177411-56.386656-60.589907-56.204699Z" transform="matrix(-.879127-.476587 0.476587-.879127 930.843842 754.824198)" fill="#fff" stroke-width="1.8"/></g><g transform="matrix(.664361-.747412-.747412-.664361 378.167221 862.201719)"><path d="M499.443887,196.026574l9.82943-11.241832l9.483087,6.761985-8.483673,9.789031l10.001714,8.25548l8.325312-8.017804l7.302194,6.805555-5.50625,6.594334l7.097286,7.254185l7.938763-6.459245l6.231066,7.726084-6.647206,5.53096l6.184507,6.403493l6.22185-5.074559l4.911497,5.730521-5.84611,5.337709l6.868244,8.472637-3.321804,2.336165q-61.177411-56.386656-60.589907-56.204699Z" transform="matrix(.41334-.910577-.910577-.41334 553.724514 881.3402)" fill="#fff" stroke-width="1.8"/><path d="M499.443887,196.026574l9.82943-11.241832l9.483087,6.761985-8.483673,9.789031l10.001714,8.25548l8.325312-8.017804l7.302194,6.805555-5.50625,6.594334l7.097286,7.254185l7.938763-6.459245l6.231066,7.726084-6.647206,5.53096l6.184507,6.403493l6.22185-5.074559l4.911497,5.730521-5.84611,5.337709l6.868244,8.472637-3.321804,2.336165q-61.177411-56.386656-60.589907-56.204699Z" transform="matrix(-.879127-.476587 0.476587-.879127 930.843842 754.824198)" fill="#fff" stroke-width="1.8"/></g></g></svg>
